<!DOCTYPE svg PUBLIC "-//W3C//DTD SVG 1.1//EN" "http://www.w3.org/Graphics/SVG/1.1/DTD/svg11.dtd">
<!-- Uploaded to: SVG Repo, www.svgrepo.com, Transformed by: SVG Repo Mixer Tools -->
<svg width="800px" height="800px" viewBox="-102.4 -102.4 1228.80 1228.80" class="icon" version="1.1" xmlns="http://www.w3.org/2000/svg" fill="#ffffff" stroke="#ffffff">
<g id="SVGRepo_bgCarrier" stroke-width="0">
<path transform="translate(-102.4, -102.4), scale(38.4)" d="M16,30.720006979070604C18.504942400971824,30.917577651280986,19.983715723242884,27.86795678351149,21.945420747622848,26.29777080725691C23.60944473285609,24.965854391031012,25.36970598683611,23.84639969255759,26.683942003551138,22.1683767917566C28.149343582417178,20.297344970277972,30.27877678641203,18.36141687793372,30.01068688929081,16C29.73803185925897,13.598372051000545,26.857875515430504,12.494960850424134,25.369515181123052,10.590507888002325C24.1219496199062,8.994167355331244,23.519014742524682,6.974624837766902,21.952811124734584,5.689428684098475C20.22968657504442,4.275466273081857,18.213720433309344,3.162623029252312,16,2.9020664007402956C13.662495854443279,2.6269403323647005,11.22865127060654,3.028718062084021,9.179160851286728,4.185960044173754C7.121278696259036,5.347940408435083,5.798723722540083,7.383906696680156,4.530695195274403,9.3781937835738C3.2180355093136788,11.442674357084465,1.695981618209618,13.553708821907621,1.667434087023139,15.999999999999998C1.6387959288885183,18.45405717026475,2.687312681870712,20.929900148002574,4.3750976155719705,22.711640520952635C5.950572381209583,24.374818654877977,8.685892352185602,24.101101502389774,10.572468987433236,25.40075947342138C12.694700790258999,26.862759705687186,13.430904177944345,30.517376376331196,16,30.720006979070604" fill="#ffffff" strokewidth="0"/>
</g>
<g id="SVGRepo_tracerCarrier" stroke-linecap="round" stroke-linejoin="round"/>
<g id="SVGRepo_iconCarrier">
<path d="M670.1 857.7H206.2c-27.6 0-50-22.4-50-50V331.1c0-27.6 22.4-50 50-50H670c27.6 0 50 22.4 50 50v476.6c0.1 27.7-22.3 50-49.9 50z" fill="#ffffff"/>
<path d="M669 299.3H205.1c-16.5 0-30 13.5-30 30v75.9H699v-75.9c0-16.5-13.5-30-30-30z" fill="#E6E6E6"/>
<path d="M859 159.3c-15.4-12.3-35.5-19-56.7-19H363.6c-21.2 0-41.4 6.8-56.7 19-16.4 13.1-25.9 31.7-25.9 51v49h-75.9c-38.6 0-70 31.4-70 70v476.6c0 38.6 31.4 70 70 70H669c38.6 0 70-31.4 70-70v-49h63.3c21.2 0 41.4-6.8 56.7-19 16.4-13.1 25.9-31.7 25.9-51V210.3c0-19.3-9.5-37.9-25.9-51zM699 405.2H175.1v-75.9c0-16.5 13.5-30 30-30H669c16.5 0 30 13.5 30 30v75.9z m0 400.7c0 16.5-13.5 30-30 30H205.1c-16.5 0-30-13.5-30-30V425.2H699v380.7z m145.9-119c0 16.3-19.5 30-42.6 30H739V329.3c0-38.6-31.4-70-70-70H321v-49c0-16.3 19.5-30 42.6-30h438.7c23.1 0 42.6 13.7 42.6 30v476.6z" fill="#00e1ff"/>
<path d="M537.3 369.2H393.1c-9.9 0-17.9-8-17.9-17.9 0-9.9 8-17.9 17.9-17.9h144.2c9.9 0 17.9 8 17.9 17.9 0 9.9-8 17.9-17.9 17.9z" fill="#ffffff"/>
<path d="M320.4 802.3h-82.1c-16.6 0-30-13.4-30-30V454.4h112.1v347.9zM636.2 802.3H355V454.4h311.3v317.9c-0.1 16.6-13.5 30-30.1 30z" fill="#E6E6E6"/>
<path d="M230.2 351.3m-18.7 0a18.7 18.7 0 1 0 37.4 0 18.7 18.7 0 1 0-37.4 0Z" fill="#ffffff"/>
<path d="M290.6 351.3m-18.7 0a18.7 18.7 0 1 0 37.4 0 18.7 18.7 0 1 0-37.4 0Z" fill="#ffffff"/>
<path d="M225.3 749.2c-2.4 0-4.7-0.8-6.6-2.5-4.1-3.7-4.5-10-0.8-14.1l120.8-136 121 34.4 191.7-132.3c4.5-3.1 10.8-2 13.9 2.5 3.1 4.5 2 10.8-2.5 13.9L463.2 652.7l-118-33.5-112.5 126.6c-1.9 2.2-4.7 3.4-7.4 3.4z" fill="#00e1ff"/>
<path d="M469.9 740.3L338.6 566.7l-123.2 51.8c-5.1 2.1-11-0.2-13.1-5.3-2.1-5.1 0.2-11 5.3-13.1l137.5-57.9 124 164.1L638 463.6c3.2-4.5 9.4-5.7 13.9-2.5s5.7 9.4 2.5 13.9L469.9 740.3z" fill="#5005ff"/>
</g>
</svg>